name C:\Users\u0101727\Documents\MyRepositories\paper-ad\predictivesimulations_2d/Results/PredSim_2D/IK_c20.mot
datacolumns 11
datarows 30
range 0.00000000 0.27821119
endheader
time	pelvis_tilt	pelvis_tx	pelvis_ty	hip_flexion_l	hip_flexion_r	knee_angle_l	knee_angle_r	ankle_angle_l	ankle_angle_r	lumbar_extension	
          0.00000000	        -15.18036851	          0.00000000	          0.88360009	          1.00287226	         38.10893520	        -16.23430474	        -10.56426336	          5.75899749	         13.84294679	          9.69407578	
          0.00959349	        -15.14232924	          0.01477730	          0.88281262	          0.90905550	         37.62452137	        -17.72757902	         -9.95899323	          4.55861456	         13.39489682	          9.79093848	
          0.01918698	        -15.09324780	          0.02981806	          0.88197399	          0.89397526	         37.04493019	        -19.38833958	         -9.63979145	          3.25446842	         12.89473449	          9.90084641	
          0.02878047	        -15.03568220	          0.04510525	          0.88110763	          0.96486870	         36.30207578	        -21.21349422	         -9.72726298	          1.82663844	         12.34038755	         10.02777515	
          0.03837396	        -14.97784306	          0.06045299	          0.88034050	          1.12636613	         35.43907922	        -23.18446996	        -10.04164474	          0.36054170	         11.77121045	         10.16229593	
          0.04796745	        -14.93070656	          0.07552058	          0.87990220	          1.40530416	         34.58114367	        -25.20878866	        -10.32193054	         -0.92245510	         11.22115657	         10.28116970	
          0.05756094	        -14.90283030	          0.09006098	          0.88005472	          1.82995316	         33.76554829	        -27.14625810	        -10.58032720	         -1.92441661	         10.69009235	         10.37048539	
          0.06715443	        -14.89655074	          0.10401123	          0.88095398	          2.39623667	         32.99475407	        -28.93428950	        -10.81172816	         -2.67467925	         10.19265574	         10.42910230	
          0.07674792	        -14.90717550	          0.11745463	          0.88255914	          3.08735751	         32.25023137	        -30.59359705	        -11.00414437	         -3.18268181	          9.74513320	         10.46316129	
          0.08634140	        -14.92811069	          0.13051540	          0.88466027	          3.88276767	         31.51085947	        -32.15328804	        -11.14864821	         -3.46117600	          9.35901630	         10.47968195	
          0.09593489	        -14.95399606	          0.14330101	          0.88702468	          4.76691567	         30.75983063	        -33.63095075	        -11.23840773	         -3.52572352	          9.04056154	         10.48397770	
          0.10552838	        -14.98139541	          0.15588567	          0.88946960	          5.72778084	         29.98770168	        -35.03504916	        -11.27150431	         -3.39133965	          8.79137164	         10.47924237	
          0.11512187	        -15.00841423	          0.16831634	          0.89187141	          6.75636189	         29.18995202	        -36.36689553	        -11.24838186	         -3.07431636	          8.61041021	         10.46723058	
          0.12471536	        -15.03408872	          0.18062308	          0.89415085	          7.84525529	         28.36503485	        -37.62338751	        -11.17104607	         -2.59138493	          8.49502991	         10.44894945	
          0.13430885	        -15.05792986	          0.19282619	          0.89625755	          8.98828196	         27.51332623	        -38.79965380	        -11.04297866	         -1.95940325	          8.44147833	         10.42501563	
          0.14390234	        -15.07967012	          0.20494076	          0.89815905	         10.17989095	         26.63647506	        -39.88960902	        -10.86903404	         -1.19531348	          8.44520340	         10.39588152	
          0.15349583	        -15.09913738	          0.21697917	          0.89983440	         11.41473848	         25.73708249	        -40.88645914	        -10.65523452	         -0.31628524	          8.50106248	         10.36195280	
          0.16308932	        -15.11620583	          0.22895237	          0.90127095	         12.68737580	         24.81844761	        -41.78306434	        -10.40862481	          0.66028471	          8.60345936	         10.32364750	
          0.17268281	        -15.13078621	          0.24086978	          0.90246386	         13.99247606	         23.88456488	        -42.57179422	        -10.13722362	          1.71682694	          8.74657117	         10.28135110	
          0.18227630	        -15.14286705	          0.25273904	          0.90341642	         15.32501422	         22.93985377	        -43.24447696	         -9.84878476	          2.83566651	          8.92452425	         10.23538701	
          0.19186979	        -15.15257389	          0.26456747	          0.90413927	         16.67897233	         21.98818485	        -43.79363875	         -9.55036203	          3.99898694	          9.13079527	         10.18623661	
          0.20146328	        -15.16006751	          0.27636123	          0.90464947	         18.04858059	         21.03376870	        -44.21153473	         -9.24955029	          5.18894725	          9.35768575	         10.13431852	
          0.21105677	        -15.16548987	          0.28812584	          0.90496783	         19.42834088	         20.08117793	        -44.49035903	         -8.95419396	          6.38773153	          9.59716515	         10.07997543	
          0.22065026	        -15.16898782	          0.29986729	          0.90511582	         20.81173911	         19.13521986	        -44.62319786	         -8.67269169	          7.57754823	          9.84131223	         10.02358742	
          0.23024375	        -15.17078468	          0.31159259	          0.90511374	         22.19189355	         18.19908452	        -44.60438694	         -8.41056449	          8.74073099	         10.08283395	          9.96568796	
          0.23983723	        -15.17119944	          0.32331008	          0.90497973	         23.56190832	         17.27356296	        -44.42988028	         -8.16906317	          9.85991204	         10.31511035	          9.90702083	
          0.24943072	        -15.17051421	          0.33502850	          0.90472932	         24.91386748	         16.36010554	        -44.09768450	         -7.95108213	         10.91834896	         10.53136378	          9.84831777	
          0.25902421	        -15.16897557	          0.34675597	          0.90437562	         26.23986809	         15.46086627	        -43.60675051	         -7.76019100	         11.90059471	         10.72555943	          9.79019084	
          0.26861770	        -15.16682654	          0.35850159	          0.90392927	         27.53105022	         14.57739623	        -42.96019725	         -7.59938280	         12.79323614	         10.89310297	          9.73338111	
          0.27821119	        -15.16432521	          0.37027384	          0.90339933	         28.77933647	         13.71063636	        -42.16264828	         -7.47077183	         13.58602357	         11.03105540	          9.67858603	
